<?xml version="1.0" standalone="no"?><!DOCTYPE svg PUBLIC "-//W3C//DTD SVG 1.1//EN" "http://www.w3.org/Graphics/SVG/1.1/DTD/svg11.dtd"><svg t="1541038596864" class="icon" style="" viewBox="0 0 1024 1024" version="1.1" xmlns="http://www.w3.org/2000/svg" p-id="2656" xmlns:xlink="http://www.w3.org/1999/xlink" width="32" height="32"><defs><style type="text/css"></style></defs><path d="M805.83 963.27h-65.889c-15.706 0-28.427-12.855-28.427-28.736 0-15.86 12.721-28.715 28.427-28.715h64.984c12.369-0.484 24.253-5.921 32.658-14.976 8.425-9.057 12.953-21.339 12.435-33.687l-0.021-1.235V487.396l0.021-0.596c0.519-12.371-4.03-24.696-12.502-33.774-8.46-9.057-20.398-14.49-32.822-14.909l-585.444-1.039c-12.402 0.419-24.331 5.854-32.778 14.91-8.461 9.077-13.021 21.38-12.492 33.751l0.022 1.216v369.583l-0.022 0.617c-0.529 12.371 4.031 24.674 12.492 33.752 8.46 9.057 20.398 14.49 32.812 14.91H645.16c15.704 0 28.438 12.854 28.438 28.715 0 15.881-12.734 28.736-28.438 28.736H218.477l-0.386-0.021c-27.566-0.728-54.173-12.744-73.013-32.957-18.766-20.122-28.926-47.4-27.942-74.924V487.528c-0.983-27.521 9.177-54.801 27.942-74.923 18.829-20.21 45.446-32.227 73.013-32.979h0.817l586.636 1.039 0.354 0.022c27.566 0.73 54.183 12.767 73.023 32.979 18.754 20.1 28.925 47.38 27.943 74.901v366.8c0.981 27.456-9.134 54.669-27.81 74.791-18.775 20.19-45.304 32.251-72.793 33.09l-0.431 0.022z m-48.273-597.801c-16.224 0-29.39-13.297-29.39-29.688 0-119.19-96.968-216.157-216.167-216.157-119.201 0-216.169 96.967-216.169 216.157 0 16.39-13.165 29.688-29.389 29.688-16.225 0-29.377-13.297-29.377-29.688 0-73.644 28.626-142.868 80.622-194.908C369.606 88.877 438.611 60.25 512 60.25s142.403 28.627 194.311 80.623c51.998 52.04 80.625 121.265 80.625 194.908 0 16.39-13.156 29.688-29.379 29.688zM512 831.204c-15.705 0-28.439-12.878-28.439-28.739V540.431c0-15.86 12.734-28.737 28.439-28.737 15.704 0 28.438 12.876 28.438 28.737v262.034c0 15.861-12.734 28.739-28.438 28.739z" p-id="2657" fill="#444444"></path></svg>